<mxfile host="app.diagrams.net" modified="2020-06-15T13:46:34.530Z" agent="5.0 (Windows NT 10.0; Win64; x64) AppleWebKit/537.36 (KHTML, like Gecko) Chrome/83.0.4103.97 Safari/537.36" etag="Q52tQr-Pn1KeU3ZrTmZA" version="13.1.1" type="github">
  <diagram name="Page-1" id="822b0af5-4adb-64df-f703-e8dfc1f81529">
    <mxGraphModel dx="652" dy="364" grid="1" gridSize="10" guides="1" tooltips="1" connect="1" arrows="1" fold="1" page="1" pageScale="1" pageWidth="1169" pageHeight="827" background="#ffffff" math="0" shadow="0">
      <root>
        <mxCell id="0" />
        <mxCell id="1" parent="0" />
        <mxCell id="hL3f7U12DdkOKfvxl-o4-4" value="" style="rounded=1;whiteSpace=wrap;html=1;strokeColor=#CCCCCC;strokeWidth=2;" parent="1" vertex="1">
          <mxGeometry x="320" y="120" width="160" height="120" as="geometry" />
        </mxCell>
        <mxCell id="hL3f7U12DdkOKfvxl-o4-8" value="" style="rounded=1;whiteSpace=wrap;html=1;strokeWidth=2;strokeColor=#CCCCCC;" parent="1" vertex="1">
          <mxGeometry x="80" y="120" width="160" height="120" as="geometry" />
        </mxCell>
        <mxCell id="hL3f7U12DdkOKfvxl-o4-9" value="" style="rounded=1;whiteSpace=wrap;html=1;strokeColor=#CCCCCC;strokeWidth=2;" parent="1" vertex="1">
          <mxGeometry x="80" y="300" width="160" height="120" as="geometry" />
        </mxCell>
        <mxCell id="hL3f7U12DdkOKfvxl-o4-10" value="" style="rounded=1;whiteSpace=wrap;html=1;strokeColor=#CCCCCC;strokeWidth=2;" parent="1" vertex="1">
          <mxGeometry x="320" y="300" width="160" height="120" as="geometry" />
        </mxCell>
        <mxCell id="hL3f7U12DdkOKfvxl-o4-11" value="" style="rounded=1;whiteSpace=wrap;html=1;strokeWidth=2;strokeColor=#CCCCCC;" parent="1" vertex="1">
          <mxGeometry x="80" y="480" width="160" height="120" as="geometry" />
        </mxCell>
        <mxCell id="hL3f7U12DdkOKfvxl-o4-13" value="" style="rounded=1;whiteSpace=wrap;html=1;strokeColor=#CCCCCC;strokeWidth=2;" parent="1" vertex="1">
          <mxGeometry x="80" y="660" width="160" height="120" as="geometry" />
        </mxCell>
        <mxCell id="hL3f7U12DdkOKfvxl-o4-14" value="" style="rounded=1;whiteSpace=wrap;html=1;strokeWidth=2;strokeColor=#CCCCCC;" parent="1" vertex="1">
          <mxGeometry x="320" y="660" width="160" height="120" as="geometry" />
        </mxCell>
        <mxCell id="hL3f7U12DdkOKfvxl-o4-15" value="" style="rounded=1;whiteSpace=wrap;html=1;strokeColor=#CCCCCC;strokeWidth=2;" parent="1" vertex="1">
          <mxGeometry x="560" y="660" width="160" height="120" as="geometry" />
        </mxCell>
        <mxCell id="hL3f7U12DdkOKfvxl-o4-18" value="" style="rounded=1;whiteSpace=wrap;html=1;strokeColor=#CCCCCC;strokeWidth=2;" parent="1" vertex="1">
          <mxGeometry x="320" y="480" width="160" height="120" as="geometry" />
        </mxCell>
        <mxCell id="hL3f7U12DdkOKfvxl-o4-28" value="" style="rounded=1;whiteSpace=wrap;html=1;fillColor=#d5e8d4;strokeColor=#82b366;" parent="1" vertex="1">
          <mxGeometry x="200" y="490" width="30" height="30.45" as="geometry" />
        </mxCell>
        <mxCell id="hL3f7U12DdkOKfvxl-o4-30" value="" style="rounded=1;whiteSpace=wrap;html=1;fillColor=#d5e8d4;strokeColor=#82b366;" parent="1" vertex="1">
          <mxGeometry x="440" y="490" width="30" height="30.45" as="geometry" />
        </mxCell>
        <mxCell id="hL3f7U12DdkOKfvxl-o4-31" value="" style="rounded=1;whiteSpace=wrap;html=1;fillColor=#d5e8d4;strokeColor=#82b366;" parent="1" vertex="1">
          <mxGeometry x="440" y="310" width="30" height="30.45" as="geometry" />
        </mxCell>
        <mxCell id="hL3f7U12DdkOKfvxl-o4-32" value="" style="rounded=1;whiteSpace=wrap;html=1;fillColor=#d5e8d4;strokeColor=#82b366;" parent="1" vertex="1">
          <mxGeometry x="200" y="310" width="30" height="30.45" as="geometry" />
        </mxCell>
        <mxCell id="hL3f7U12DdkOKfvxl-o4-33" value="" style="rounded=1;whiteSpace=wrap;html=1;fillColor=#d5e8d4;strokeColor=#82b366;" parent="1" vertex="1">
          <mxGeometry x="200" y="670" width="30" height="30.45" as="geometry" />
        </mxCell>
        <mxCell id="hL3f7U12DdkOKfvxl-o4-34" value="" style="rounded=1;whiteSpace=wrap;html=1;fillColor=#d5e8d4;strokeColor=#82b366;" parent="1" vertex="1">
          <mxGeometry x="440" y="670" width="30" height="30.45" as="geometry" />
        </mxCell>
        <mxCell id="hL3f7U12DdkOKfvxl-o4-35" value="" style="rounded=1;whiteSpace=wrap;html=1;fillColor=#d5e8d4;strokeColor=#82b366;" parent="1" vertex="1">
          <mxGeometry x="680" y="670" width="30" height="30.45" as="geometry" />
        </mxCell>
        <mxCell id="hL3f7U12DdkOKfvxl-o4-36" value="" style="shape=cylinder;whiteSpace=wrap;html=1;boundedLbl=1;backgroundOutline=1;fillColor=#dae8fc;strokeColor=#6c8ebf;" parent="1" vertex="1">
          <mxGeometry x="330" y="710" width="40" height="50" as="geometry" />
        </mxCell>
        <mxCell id="hL3f7U12DdkOKfvxl-o4-37" value="" style="shape=cylinder;whiteSpace=wrap;html=1;boundedLbl=1;backgroundOutline=1;fillColor=#dae8fc;strokeColor=#6c8ebf;" parent="1" vertex="1">
          <mxGeometry x="570" y="710" width="40" height="50" as="geometry" />
        </mxCell>
        <mxCell id="hL3f7U12DdkOKfvxl-o4-59" style="edgeStyle=orthogonalEdgeStyle;rounded=1;orthogonalLoop=1;jettySize=auto;html=1;exitX=0.5;exitY=1;exitDx=0;exitDy=0;entryX=0.5;entryY=1;entryDx=0;entryDy=0;strokeColor=#6c8ebf;strokeWidth=2;fillColor=#dae8fc;" parent="1" source="hL3f7U12DdkOKfvxl-o4-38" target="hL3f7U12DdkOKfvxl-o4-36" edge="1">
          <mxGeometry relative="1" as="geometry">
            <Array as="points">
              <mxPoint x="110" y="810" />
              <mxPoint x="350" y="810" />
            </Array>
          </mxGeometry>
        </mxCell>
        <mxCell id="hL3f7U12DdkOKfvxl-o4-38" value="" style="shape=cylinder;whiteSpace=wrap;html=1;boundedLbl=1;backgroundOutline=1;fillColor=#dae8fc;strokeColor=#6c8ebf;" parent="1" vertex="1">
          <mxGeometry x="90" y="710" width="40" height="50" as="geometry" />
        </mxCell>
        <mxCell id="hL3f7U12DdkOKfvxl-o4-39" value="" style="shape=cylinder;whiteSpace=wrap;html=1;boundedLbl=1;backgroundOutline=1;fillColor=#e1d5e7;strokeColor=#9673a6;" parent="1" vertex="1">
          <mxGeometry x="190" y="710" width="40" height="50" as="geometry" />
        </mxCell>
        <mxCell id="hL3f7U12DdkOKfvxl-o4-40" value="" style="shape=cylinder;whiteSpace=wrap;html=1;boundedLbl=1;backgroundOutline=1;fillColor=#e1d5e7;strokeColor=#9673a6;" parent="1" vertex="1">
          <mxGeometry x="430" y="710" width="40" height="50" as="geometry" />
        </mxCell>
        <mxCell id="hL3f7U12DdkOKfvxl-o4-41" value="" style="shape=cylinder;whiteSpace=wrap;html=1;boundedLbl=1;backgroundOutline=1;fillColor=#e1d5e7;strokeColor=#9673a6;" parent="1" vertex="1">
          <mxGeometry x="670" y="710" width="40" height="50" as="geometry" />
        </mxCell>
        <mxCell id="hL3f7U12DdkOKfvxl-o4-42" value="patroni" style="rounded=1;whiteSpace=wrap;html=1;fillColor=#dae8fc;strokeColor=#6c8ebf;" parent="1" vertex="1">
          <mxGeometry x="122.5" y="700.45" width="40" height="20" as="geometry" />
        </mxCell>
        <mxCell id="hL3f7U12DdkOKfvxl-o4-43" value="patroni" style="rounded=1;whiteSpace=wrap;html=1;fillColor=#dae8fc;strokeColor=#6c8ebf;" parent="1" vertex="1">
          <mxGeometry x="362.5" y="700.45" width="40" height="20" as="geometry" />
        </mxCell>
        <mxCell id="hL3f7U12DdkOKfvxl-o4-44" value="patroni" style="rounded=1;whiteSpace=wrap;html=1;fillColor=#dae8fc;strokeColor=#6c8ebf;" parent="1" vertex="1">
          <mxGeometry x="600" y="700.45" width="40" height="20" as="geometry" />
        </mxCell>
        <mxCell id="hL3f7U12DdkOKfvxl-o4-45" value="" style="fontColor=#0066CC;verticalAlign=top;verticalLabelPosition=bottom;labelPosition=center;align=center;html=1;outlineConnect=0;fillColor=#CCCCCC;strokeColor=#6881B3;gradientColor=none;gradientDirection=north;strokeWidth=2;shape=mxgraph.networks.load_balancer;" parent="1" vertex="1">
          <mxGeometry x="122.5" y="130" width="75" height="20" as="geometry" />
        </mxCell>
        <mxCell id="hL3f7U12DdkOKfvxl-o4-46" value="" style="fontColor=#0066CC;verticalAlign=top;verticalLabelPosition=bottom;labelPosition=center;align=center;html=1;outlineConnect=0;fillColor=#CCCCCC;strokeColor=#6881B3;gradientColor=none;gradientDirection=north;strokeWidth=2;shape=mxgraph.networks.load_balancer;" parent="1" vertex="1">
          <mxGeometry x="365" y="130" width="75" height="20" as="geometry" />
        </mxCell>
        <mxCell id="hL3f7U12DdkOKfvxl-o4-47" value="" style="fontColor=#0066CC;verticalAlign=top;verticalLabelPosition=bottom;labelPosition=center;align=center;html=1;outlineConnect=0;fillColor=#CCCCCC;strokeColor=#6881B3;gradientColor=none;gradientDirection=north;strokeWidth=2;shape=mxgraph.networks.load_balancer;" parent="1" vertex="1">
          <mxGeometry x="122.5" y="560" width="75" height="20" as="geometry" />
        </mxCell>
        <mxCell id="hL3f7U12DdkOKfvxl-o4-48" value="" style="fontColor=#0066CC;verticalAlign=top;verticalLabelPosition=bottom;labelPosition=center;align=center;html=1;outlineConnect=0;fillColor=#CCCCCC;strokeColor=#6881B3;gradientColor=none;gradientDirection=north;strokeWidth=2;shape=mxgraph.networks.load_balancer;" parent="1" vertex="1">
          <mxGeometry x="362.5" y="560" width="75" height="20" as="geometry" />
        </mxCell>
        <mxCell id="hL3f7U12DdkOKfvxl-o4-50" value="" style="aspect=fixed;pointerEvents=1;shadow=0;dashed=0;html=1;strokeColor=none;labelPosition=center;verticalLabelPosition=bottom;verticalAlign=top;align=center;fillColor=#00188D;shape=mxgraph.mscae.enterprise.application" parent="1" vertex="1">
          <mxGeometry x="90" y="319" width="50" height="34" as="geometry" />
        </mxCell>
        <mxCell id="hL3f7U12DdkOKfvxl-o4-51" value="" style="aspect=fixed;pointerEvents=1;shadow=0;dashed=0;html=1;strokeColor=#C73500;labelPosition=center;verticalLabelPosition=bottom;verticalAlign=top;align=center;fillColor=#fa6800;shape=mxgraph.mscae.enterprise.application;fontColor=#ffffff;" parent="1" vertex="1">
          <mxGeometry x="145" y="329" width="50" height="34" as="geometry" />
        </mxCell>
        <mxCell id="hL3f7U12DdkOKfvxl-o4-53" value="" style="aspect=fixed;pointerEvents=1;shadow=0;dashed=0;html=1;strokeColor=#3A5431;labelPosition=center;verticalLabelPosition=bottom;verticalAlign=top;align=center;fillColor=#6d8764;shape=mxgraph.mscae.enterprise.application;fontColor=#ffffff;" parent="1" vertex="1">
          <mxGeometry x="170" y="380" width="50" height="34" as="geometry" />
        </mxCell>
        <mxCell id="hL3f7U12DdkOKfvxl-o4-55" value="" style="aspect=fixed;pointerEvents=1;shadow=0;dashed=0;html=1;strokeColor=none;labelPosition=center;verticalLabelPosition=bottom;verticalAlign=top;align=center;fillColor=#00188D;shape=mxgraph.mscae.enterprise.application" parent="1" vertex="1">
          <mxGeometry x="330" y="319" width="50" height="34" as="geometry" />
        </mxCell>
        <mxCell id="hL3f7U12DdkOKfvxl-o4-56" value="" style="aspect=fixed;pointerEvents=1;shadow=0;dashed=0;html=1;strokeColor=#C73500;labelPosition=center;verticalLabelPosition=bottom;verticalAlign=top;align=center;fillColor=#fa6800;shape=mxgraph.mscae.enterprise.application;fontColor=#ffffff;" parent="1" vertex="1">
          <mxGeometry x="385" y="329" width="50" height="34" as="geometry" />
        </mxCell>
        <mxCell id="hL3f7U12DdkOKfvxl-o4-57" value="" style="aspect=fixed;pointerEvents=1;shadow=0;dashed=0;html=1;strokeColor=#3A5431;labelPosition=center;verticalLabelPosition=bottom;verticalAlign=top;align=center;fillColor=#6d8764;shape=mxgraph.mscae.enterprise.application;fontColor=#ffffff;" parent="1" vertex="1">
          <mxGeometry x="410" y="380" width="50" height="34" as="geometry" />
        </mxCell>
        <mxCell id="hL3f7U12DdkOKfvxl-o4-58" value="" style="edgeStyle=segmentEdgeStyle;endArrow=classic;html=1;exitX=0.5;exitY=1;exitDx=0;exitDy=0;entryX=0.5;entryY=1;entryDx=0;entryDy=0;startArrow=classic;startFill=1;fillColor=#e1d5e7;strokeColor=#9673a6;strokeWidth=2;" parent="1" source="hL3f7U12DdkOKfvxl-o4-39" target="hL3f7U12DdkOKfvxl-o4-40" edge="1">
          <mxGeometry width="50" height="50" relative="1" as="geometry">
            <mxPoint x="240" y="910" as="sourcePoint" />
            <mxPoint x="290" y="860" as="targetPoint" />
            <Array as="points">
              <mxPoint x="210" y="800" />
              <mxPoint x="450" y="800" />
            </Array>
          </mxGeometry>
        </mxCell>
        <mxCell id="hL3f7U12DdkOKfvxl-o4-60" value="" style="edgeStyle=segmentEdgeStyle;endArrow=classic;html=1;exitX=0.5;exitY=1;exitDx=0;exitDy=0;entryX=0.5;entryY=1;entryDx=0;entryDy=0;fillColor=#dae8fc;strokeColor=#6c8ebf;strokeWidth=2;" parent="1" source="hL3f7U12DdkOKfvxl-o4-38" target="hL3f7U12DdkOKfvxl-o4-37" edge="1">
          <mxGeometry width="50" height="50" relative="1" as="geometry">
            <mxPoint x="290" y="670" as="sourcePoint" />
            <mxPoint x="340" y="620" as="targetPoint" />
            <Array as="points">
              <mxPoint x="110" y="810" />
              <mxPoint x="590" y="810" />
            </Array>
          </mxGeometry>
        </mxCell>
        <mxCell id="Z2CJnv1nmDG1hLWm02fg-52" value="replication" style="edgeLabel;html=1;align=center;verticalAlign=middle;resizable=0;points=[];fontSize=10;" vertex="1" connectable="0" parent="hL3f7U12DdkOKfvxl-o4-60">
          <mxGeometry x="-0.6065" y="1" relative="1" as="geometry">
            <mxPoint as="offset" />
          </mxGeometry>
        </mxCell>
        <mxCell id="hL3f7U12DdkOKfvxl-o4-61" value="" style="edgeStyle=segmentEdgeStyle;endArrow=classic;html=1;exitX=0.5;exitY=1;exitDx=0;exitDy=0;entryX=0.5;entryY=1;entryDx=0;entryDy=0;startArrow=classic;startFill=1;fillColor=#e1d5e7;strokeColor=#9673a6;strokeWidth=2;" parent="1" source="hL3f7U12DdkOKfvxl-o4-39" target="hL3f7U12DdkOKfvxl-o4-41" edge="1">
          <mxGeometry width="50" height="50" relative="1" as="geometry">
            <mxPoint x="180" y="770" as="sourcePoint" />
            <mxPoint x="420" y="770" as="targetPoint" />
            <Array as="points">
              <mxPoint x="210" y="800" />
              <mxPoint x="690" y="800" />
            </Array>
          </mxGeometry>
        </mxCell>
        <mxCell id="Z2CJnv1nmDG1hLWm02fg-53" value="cluster" style="edgeLabel;html=1;align=center;verticalAlign=middle;resizable=0;points=[];fontSize=10;" vertex="1" connectable="0" parent="hL3f7U12DdkOKfvxl-o4-61">
          <mxGeometry x="0.1635" y="1" relative="1" as="geometry">
            <mxPoint as="offset" />
          </mxGeometry>
        </mxCell>
        <mxCell id="Z2CJnv1nmDG1hLWm02fg-2" value="" style="edgeStyle=elbowEdgeStyle;elbow=vertical;endArrow=classic;html=1;strokeColor=#000000;strokeWidth=1;entryX=0.15;entryY=0.05;entryDx=0;entryDy=0;entryPerimeter=0;" edge="1" parent="1" target="hL3f7U12DdkOKfvxl-o4-38">
          <mxGeometry width="50" height="50" relative="1" as="geometry">
            <mxPoint x="160" y="580" as="sourcePoint" />
            <mxPoint x="380" y="620" as="targetPoint" />
            <Array as="points">
              <mxPoint x="230" y="640" />
            </Array>
          </mxGeometry>
        </mxCell>
        <mxCell id="Z2CJnv1nmDG1hLWm02fg-3" value="" style="edgeStyle=elbowEdgeStyle;elbow=vertical;endArrow=classic;html=1;strokeColor=#000000;strokeWidth=1;entryX=0.15;entryY=0.05;entryDx=0;entryDy=0;entryPerimeter=0;" edge="1" parent="1" source="hL3f7U12DdkOKfvxl-o4-47" target="hL3f7U12DdkOKfvxl-o4-36">
          <mxGeometry width="50" height="50" relative="1" as="geometry">
            <mxPoint x="140" y="590" as="sourcePoint" />
            <mxPoint x="106" y="722.4999999999998" as="targetPoint" />
            <Array as="points">
              <mxPoint x="250" y="640" />
            </Array>
          </mxGeometry>
        </mxCell>
        <mxCell id="Z2CJnv1nmDG1hLWm02fg-4" value="" style="edgeStyle=elbowEdgeStyle;elbow=vertical;endArrow=classic;html=1;strokeColor=#000000;strokeWidth=1;entryX=0.15;entryY=0.05;entryDx=0;entryDy=0;entryPerimeter=0;" edge="1" parent="1" target="hL3f7U12DdkOKfvxl-o4-37">
          <mxGeometry width="50" height="50" relative="1" as="geometry">
            <mxPoint x="160" y="580" as="sourcePoint" />
            <mxPoint x="346" y="722.5" as="targetPoint" />
            <Array as="points">
              <mxPoint x="370" y="640" />
            </Array>
          </mxGeometry>
        </mxCell>
        <mxCell id="Z2CJnv1nmDG1hLWm02fg-5" value="" style="rounded=1;whiteSpace=wrap;html=1;fillColor=#d5e8d4;strokeColor=#82b366;" vertex="1" parent="1">
          <mxGeometry x="700" y="380" width="30" height="30.45" as="geometry" />
        </mxCell>
        <mxCell id="Z2CJnv1nmDG1hLWm02fg-6" value="" style="rounded=1;whiteSpace=wrap;html=1;fillColor=#d5e8d4;strokeColor=#82b366;" vertex="1" parent="1">
          <mxGeometry x="660" y="440" width="30" height="30.45" as="geometry" />
        </mxCell>
        <mxCell id="Z2CJnv1nmDG1hLWm02fg-7" value="" style="rounded=1;whiteSpace=wrap;html=1;fillColor=#d5e8d4;strokeColor=#82b366;" vertex="1" parent="1">
          <mxGeometry x="710" y="490.00000000000006" width="30" height="30.45" as="geometry" />
        </mxCell>
        <mxCell id="Z2CJnv1nmDG1hLWm02fg-8" value="" style="rounded=1;whiteSpace=wrap;html=1;fillColor=#d5e8d4;strokeColor=#82b366;" vertex="1" parent="1">
          <mxGeometry x="760" y="420.00000000000006" width="30" height="30.45" as="geometry" />
        </mxCell>
        <mxCell id="Z2CJnv1nmDG1hLWm02fg-9" value="" style="endArrow=none;dashed=1;html=1;strokeColor=#000000;strokeWidth=1;exitX=0.5;exitY=1;exitDx=0;exitDy=0;entryX=1;entryY=0.5;entryDx=0;entryDy=0;" edge="1" parent="1" source="Z2CJnv1nmDG1hLWm02fg-5" target="Z2CJnv1nmDG1hLWm02fg-6">
          <mxGeometry width="50" height="50" relative="1" as="geometry">
            <mxPoint x="450" y="530" as="sourcePoint" />
            <mxPoint x="560" y="490" as="targetPoint" />
          </mxGeometry>
        </mxCell>
        <mxCell id="Z2CJnv1nmDG1hLWm02fg-10" value="" style="endArrow=none;dashed=1;html=1;strokeColor=#000000;strokeWidth=1;exitX=0.5;exitY=0;exitDx=0;exitDy=0;entryX=1;entryY=0.5;entryDx=0;entryDy=0;" edge="1" parent="1" source="Z2CJnv1nmDG1hLWm02fg-7" target="Z2CJnv1nmDG1hLWm02fg-6">
          <mxGeometry width="50" height="50" relative="1" as="geometry">
            <mxPoint x="745" y="450" as="sourcePoint" />
            <mxPoint x="690" y="474.775" as="targetPoint" />
          </mxGeometry>
        </mxCell>
        <mxCell id="Z2CJnv1nmDG1hLWm02fg-11" value="" style="endArrow=none;dashed=1;html=1;strokeColor=#000000;strokeWidth=1;exitX=0.5;exitY=0;exitDx=0;exitDy=0;entryX=0;entryY=0.5;entryDx=0;entryDy=0;" edge="1" parent="1" source="Z2CJnv1nmDG1hLWm02fg-7" target="Z2CJnv1nmDG1hLWm02fg-8">
          <mxGeometry width="50" height="50" relative="1" as="geometry">
            <mxPoint x="715" y="530.45" as="sourcePoint" />
            <mxPoint x="690" y="474.775" as="targetPoint" />
          </mxGeometry>
        </mxCell>
        <mxCell id="Z2CJnv1nmDG1hLWm02fg-12" value="" style="endArrow=none;dashed=1;html=1;strokeColor=#000000;strokeWidth=1;exitX=0;exitY=0.5;exitDx=0;exitDy=0;entryX=0.5;entryY=1;entryDx=0;entryDy=0;" edge="1" parent="1" source="Z2CJnv1nmDG1hLWm02fg-8" target="Z2CJnv1nmDG1hLWm02fg-5">
          <mxGeometry width="50" height="50" relative="1" as="geometry">
            <mxPoint x="715" y="530.45" as="sourcePoint" />
            <mxPoint x="770" y="505.2249999999999" as="targetPoint" />
          </mxGeometry>
        </mxCell>
        <mxCell id="Z2CJnv1nmDG1hLWm02fg-13" value="" style="endArrow=none;dashed=1;html=1;strokeColor=#000000;strokeWidth=1;exitX=0.5;exitY=0;exitDx=0;exitDy=0;entryX=0.5;entryY=1;entryDx=0;entryDy=0;" edge="1" parent="1" source="Z2CJnv1nmDG1hLWm02fg-7" target="Z2CJnv1nmDG1hLWm02fg-5">
          <mxGeometry width="50" height="50" relative="1" as="geometry">
            <mxPoint x="770" y="505.2249999999999" as="sourcePoint" />
            <mxPoint x="745" y="450" as="targetPoint" />
          </mxGeometry>
        </mxCell>
        <mxCell id="Z2CJnv1nmDG1hLWm02fg-14" value="" style="endArrow=none;dashed=1;html=1;strokeColor=#000000;strokeWidth=1;exitX=0;exitY=0.5;exitDx=0;exitDy=0;entryX=1;entryY=0.5;entryDx=0;entryDy=0;" edge="1" parent="1" source="Z2CJnv1nmDG1hLWm02fg-8" target="Z2CJnv1nmDG1hLWm02fg-6">
          <mxGeometry width="50" height="50" relative="1" as="geometry">
            <mxPoint x="715" y="530.45" as="sourcePoint" />
            <mxPoint x="745" y="450" as="targetPoint" />
          </mxGeometry>
        </mxCell>
        <mxCell id="Z2CJnv1nmDG1hLWm02fg-15" value="pg" style="text;html=1;strokeColor=none;fillColor=none;align=center;verticalAlign=middle;whiteSpace=wrap;rounded=0;" vertex="1" parent="1">
          <mxGeometry x="90" y="730" width="40" height="20" as="geometry" />
        </mxCell>
        <mxCell id="Z2CJnv1nmDG1hLWm02fg-16" value="ES" style="text;html=1;strokeColor=none;fillColor=none;align=center;verticalAlign=middle;whiteSpace=wrap;rounded=0;" vertex="1" parent="1">
          <mxGeometry x="190" y="730" width="40" height="20" as="geometry" />
        </mxCell>
        <mxCell id="Z2CJnv1nmDG1hLWm02fg-17" value="ES" style="text;html=1;strokeColor=none;fillColor=none;align=center;verticalAlign=middle;whiteSpace=wrap;rounded=0;" vertex="1" parent="1">
          <mxGeometry x="430" y="730" width="40" height="20" as="geometry" />
        </mxCell>
        <mxCell id="Z2CJnv1nmDG1hLWm02fg-18" value="pg" style="text;html=1;strokeColor=none;fillColor=none;align=center;verticalAlign=middle;whiteSpace=wrap;rounded=0;" vertex="1" parent="1">
          <mxGeometry x="330" y="730" width="40" height="20" as="geometry" />
        </mxCell>
        <mxCell id="Z2CJnv1nmDG1hLWm02fg-19" value="pg" style="text;html=1;strokeColor=none;fillColor=none;align=center;verticalAlign=middle;whiteSpace=wrap;rounded=0;" vertex="1" parent="1">
          <mxGeometry x="570" y="730" width="40" height="20" as="geometry" />
        </mxCell>
        <mxCell id="Z2CJnv1nmDG1hLWm02fg-20" value="ES" style="text;html=1;strokeColor=none;fillColor=none;align=center;verticalAlign=middle;whiteSpace=wrap;rounded=0;" vertex="1" parent="1">
          <mxGeometry x="670" y="730" width="40" height="20" as="geometry" />
        </mxCell>
        <mxCell id="Z2CJnv1nmDG1hLWm02fg-21" value="consul" style="text;html=1;strokeColor=none;fillColor=none;align=center;verticalAlign=middle;whiteSpace=wrap;rounded=0;fontSize=10;" vertex="1" parent="1">
          <mxGeometry x="195" y="675.23" width="40" height="20" as="geometry" />
        </mxCell>
        <mxCell id="Z2CJnv1nmDG1hLWm02fg-22" value="consul" style="text;html=1;strokeColor=none;fillColor=none;align=center;verticalAlign=middle;whiteSpace=wrap;rounded=0;fontSize=10;" vertex="1" parent="1">
          <mxGeometry x="435" y="675.23" width="40" height="20" as="geometry" />
        </mxCell>
        <mxCell id="Z2CJnv1nmDG1hLWm02fg-23" value="consul" style="text;html=1;strokeColor=none;fillColor=none;align=center;verticalAlign=middle;whiteSpace=wrap;rounded=0;fontSize=10;" vertex="1" parent="1">
          <mxGeometry x="675" y="675.23" width="40" height="20" as="geometry" />
        </mxCell>
        <mxCell id="Z2CJnv1nmDG1hLWm02fg-24" value="consul" style="text;html=1;strokeColor=none;fillColor=none;align=center;verticalAlign=middle;whiteSpace=wrap;rounded=0;fontSize=10;" vertex="1" parent="1">
          <mxGeometry x="435" y="495.22" width="40" height="20" as="geometry" />
        </mxCell>
        <mxCell id="Z2CJnv1nmDG1hLWm02fg-25" value="consul" style="text;html=1;strokeColor=none;fillColor=none;align=center;verticalAlign=middle;whiteSpace=wrap;rounded=0;fontSize=10;" vertex="1" parent="1">
          <mxGeometry x="195" y="495.22" width="40" height="20" as="geometry" />
        </mxCell>
        <mxCell id="Z2CJnv1nmDG1hLWm02fg-26" value="consul" style="text;html=1;strokeColor=none;fillColor=none;align=center;verticalAlign=middle;whiteSpace=wrap;rounded=0;fontSize=10;" vertex="1" parent="1">
          <mxGeometry x="195" y="315.22" width="40" height="20" as="geometry" />
        </mxCell>
        <mxCell id="Z2CJnv1nmDG1hLWm02fg-27" value="consul" style="text;html=1;strokeColor=none;fillColor=none;align=center;verticalAlign=middle;whiteSpace=wrap;rounded=0;fontSize=10;" vertex="1" parent="1">
          <mxGeometry x="435" y="315.22" width="40" height="20" as="geometry" />
        </mxCell>
        <mxCell id="Z2CJnv1nmDG1hLWm02fg-28" value="haproxy" style="text;html=1;strokeColor=none;fillColor=none;align=center;verticalAlign=middle;whiteSpace=wrap;rounded=0;fontSize=10;" vertex="1" parent="1">
          <mxGeometry x="430" y="570" width="40" height="20" as="geometry" />
        </mxCell>
        <mxCell id="Z2CJnv1nmDG1hLWm02fg-29" value="haproxy" style="text;html=1;strokeColor=none;fillColor=none;align=center;verticalAlign=middle;whiteSpace=wrap;rounded=0;fontSize=10;" vertex="1" parent="1">
          <mxGeometry x="190" y="570" width="40" height="20" as="geometry" />
        </mxCell>
        <mxCell id="Z2CJnv1nmDG1hLWm02fg-30" value="" style="shape=hexagon;perimeter=hexagonPerimeter2;whiteSpace=wrap;html=1;strokeColor=#9673a6;strokeWidth=2;fontSize=10;fillColor=#e1d5e7;" vertex="1" parent="1">
          <mxGeometry x="330" y="560" width="20" height="15.22" as="geometry" />
        </mxCell>
        <mxCell id="Z2CJnv1nmDG1hLWm02fg-31" value="" style="shape=hexagon;perimeter=hexagonPerimeter2;whiteSpace=wrap;html=1;strokeColor=#9673a6;strokeWidth=2;fontSize=10;fillColor=#e1d5e7;" vertex="1" parent="1">
          <mxGeometry x="90" y="560" width="20" height="15.22" as="geometry" />
        </mxCell>
        <mxCell id="Z2CJnv1nmDG1hLWm02fg-32" value="" style="shape=hexagon;perimeter=hexagonPerimeter2;whiteSpace=wrap;html=1;strokeColor=#9673a6;strokeWidth=2;fontSize=10;fillColor=#e1d5e7;" vertex="1" parent="1">
          <mxGeometry x="335" y="384.78000000000003" width="20" height="15.22" as="geometry" />
        </mxCell>
        <mxCell id="Z2CJnv1nmDG1hLWm02fg-33" value="" style="shape=hexagon;perimeter=hexagonPerimeter2;whiteSpace=wrap;html=1;strokeColor=#9673a6;strokeWidth=2;fontSize=10;fillColor=#e1d5e7;" vertex="1" parent="1">
          <mxGeometry x="90" y="384.78000000000003" width="20" height="15.22" as="geometry" />
        </mxCell>
        <mxCell id="Z2CJnv1nmDG1hLWm02fg-34" value="" style="shape=hexagon;perimeter=hexagonPerimeter2;whiteSpace=wrap;html=1;strokeColor=#9673a6;strokeWidth=2;fontSize=10;fillColor=#e1d5e7;" vertex="1" parent="1">
          <mxGeometry x="150" y="750" width="20" height="15.22" as="geometry" />
        </mxCell>
        <mxCell id="Z2CJnv1nmDG1hLWm02fg-35" value="" style="shape=hexagon;perimeter=hexagonPerimeter2;whiteSpace=wrap;html=1;strokeColor=#9673a6;strokeWidth=2;fontSize=10;fillColor=#e1d5e7;" vertex="1" parent="1">
          <mxGeometry x="390" y="750" width="20" height="15.22" as="geometry" />
        </mxCell>
        <mxCell id="Z2CJnv1nmDG1hLWm02fg-36" value="" style="shape=hexagon;perimeter=hexagonPerimeter2;whiteSpace=wrap;html=1;strokeColor=#9673a6;strokeWidth=2;fontSize=10;fillColor=#e1d5e7;" vertex="1" parent="1">
          <mxGeometry x="630" y="750" width="20" height="15.22" as="geometry" />
        </mxCell>
        <mxCell id="Z2CJnv1nmDG1hLWm02fg-37" value="beat" style="text;html=1;strokeColor=none;fillColor=none;align=center;verticalAlign=middle;whiteSpace=wrap;rounded=0;fontSize=10;" vertex="1" parent="1">
          <mxGeometry x="325" y="395.23" width="40" height="20" as="geometry" />
        </mxCell>
        <mxCell id="Z2CJnv1nmDG1hLWm02fg-38" value="beat" style="text;html=1;strokeColor=none;fillColor=none;align=center;verticalAlign=middle;whiteSpace=wrap;rounded=0;fontSize=10;" vertex="1" parent="1">
          <mxGeometry x="80" y="394" width="40" height="20" as="geometry" />
        </mxCell>
        <mxCell id="Z2CJnv1nmDG1hLWm02fg-39" value="beat" style="text;html=1;strokeColor=none;fillColor=none;align=center;verticalAlign=middle;whiteSpace=wrap;rounded=0;fontSize=10;" vertex="1" parent="1">
          <mxGeometry x="80" y="570" width="40" height="20" as="geometry" />
        </mxCell>
        <mxCell id="Z2CJnv1nmDG1hLWm02fg-40" value="beat" style="text;html=1;strokeColor=none;fillColor=none;align=center;verticalAlign=middle;whiteSpace=wrap;rounded=0;fontSize=10;" vertex="1" parent="1">
          <mxGeometry x="320" y="570" width="40" height="20" as="geometry" />
        </mxCell>
        <mxCell id="Z2CJnv1nmDG1hLWm02fg-41" value="beat" style="text;html=1;strokeColor=none;fillColor=none;align=center;verticalAlign=middle;whiteSpace=wrap;rounded=0;fontSize=10;" vertex="1" parent="1">
          <mxGeometry x="140" y="760" width="40" height="20" as="geometry" />
        </mxCell>
        <mxCell id="Z2CJnv1nmDG1hLWm02fg-42" value="beat" style="text;html=1;strokeColor=none;fillColor=none;align=center;verticalAlign=middle;whiteSpace=wrap;rounded=0;fontSize=10;" vertex="1" parent="1">
          <mxGeometry x="380" y="760" width="40" height="20" as="geometry" />
        </mxCell>
        <mxCell id="Z2CJnv1nmDG1hLWm02fg-43" value="beat" style="text;html=1;strokeColor=none;fillColor=none;align=center;verticalAlign=middle;whiteSpace=wrap;rounded=0;fontSize=10;" vertex="1" parent="1">
          <mxGeometry x="620" y="760" width="40" height="20" as="geometry" />
        </mxCell>
        <mxCell id="Z2CJnv1nmDG1hLWm02fg-50" value="" style="edgeStyle=segmentEdgeStyle;endArrow=classic;html=1;strokeColor=#9673a6;strokeWidth=1;fontSize=10;exitX=0.25;exitY=0;exitDx=0;exitDy=0;entryX=0.15;entryY=0.05;entryDx=0;entryDy=0;entryPerimeter=0;fillColor=#e1d5e7;" edge="1" parent="1" source="Z2CJnv1nmDG1hLWm02fg-38" target="hL3f7U12DdkOKfvxl-o4-39">
          <mxGeometry width="50" height="50" relative="1" as="geometry">
            <mxPoint y="600" as="sourcePoint" />
            <mxPoint x="50" y="550" as="targetPoint" />
            <Array as="points">
              <mxPoint x="50" y="394" />
              <mxPoint x="50" y="650" />
              <mxPoint x="196" y="650" />
            </Array>
          </mxGeometry>
        </mxCell>
        <mxCell id="Z2CJnv1nmDG1hLWm02fg-51" value="" style="edgeStyle=segmentEdgeStyle;endArrow=classic;html=1;strokeColor=#9673a6;strokeWidth=1;fontSize=10;exitX=0.25;exitY=0;exitDx=0;exitDy=0;entryX=0.15;entryY=0.05;entryDx=0;entryDy=0;entryPerimeter=0;fillColor=#e1d5e7;" edge="1" parent="1" source="Z2CJnv1nmDG1hLWm02fg-39" target="hL3f7U12DdkOKfvxl-o4-39">
          <mxGeometry width="50" height="50" relative="1" as="geometry">
            <mxPoint x="100" y="404" as="sourcePoint" />
            <mxPoint x="206" y="722.5" as="targetPoint" />
            <Array as="points">
              <mxPoint x="50" y="570" />
              <mxPoint x="50" y="650" />
              <mxPoint x="196" y="650" />
            </Array>
          </mxGeometry>
        </mxCell>
      </root>
    </mxGraphModel>
  </diagram>
</mxfile>
